<svg width="4062" height="1152" viewBox="0 0 4062 1152" fill="none" xmlns="http://www.w3.org/2000/svg">
<rect width="4062" height="1152" fill="#121212"/>
<g clip-path="url(#clip0_55_129)">
<path d="M2146 461H1916V691H2146V461Z" fill="#121212"/>
<path d="M2027.89 504.125C2024.96 507.92 2020.82 514.187 2018.18 522.64C2013.81 536.612 2016.22 548.457 2017.6 553.517C2020.53 564.442 2026.11 572.032 2029.68 576.172C2029.85 570.077 2031.17 558.807 2038.47 547.135C2042.1 541.385 2046.24 537.13 2049.69 534.082C2047.21 529.425 2044.17 524.307 2040.31 518.96C2036.12 513.152 2031.86 508.207 2027.89 504.067V504.125Z" fill="white"/>
<path d="M2030.14 577.438L2029.33 576.518C2023.58 569.848 2019.33 561.97 2017.14 553.633C2015.25 546.445 2013.75 535.233 2017.72 522.525C2019.79 515.855 2023.07 509.588 2027.49 503.838L2027.84 503.435L2028.18 503.838C2032.67 508.553 2036.87 513.555 2040.6 518.788C2044.11 523.618 2047.27 528.735 2050.03 533.968L2050.21 534.313L2049.92 534.543C2045.55 538.338 2041.81 542.708 2038.82 547.48C2033.42 556.048 2030.43 565.995 2030.08 576.288V577.495L2030.14 577.438ZM2027.95 504.873C2023.76 510.393 2020.65 516.43 2018.64 522.813C2014.73 535.348 2016.17 546.388 2018.06 553.403C2020.13 561.165 2024.04 568.64 2029.28 574.965C2029.79 564.96 2032.84 555.3 2038.07 546.905C2041.06 542.133 2044.74 537.82 2049.06 534.025C2046.35 528.965 2043.25 524.02 2039.91 519.305C2036.29 514.245 2032.27 509.415 2027.95 504.873Z" fill="white"/>
<path d="M2033.24 575.77C2033.59 572.378 2036.86 546.158 2059 533.68C2067.28 529.023 2075.39 527.815 2080.85 527.643C2081.43 531.208 2082.23 539.028 2078.95 547.998C2076.25 555.358 2072.05 560.13 2069.52 562.545C2068.14 562.43 2066.65 562.43 2065.21 562.43C2051.01 562.833 2039.91 570.193 2033.24 575.828V575.77Z" fill="white"/>
<path d="M2032.67 576.862L2032.78 575.712C2033.3 570.767 2037.09 545.467 2058.77 533.22C2065.38 529.482 2072.8 527.412 2080.85 527.125H2081.25L2081.31 527.527C2082.12 532.357 2082.46 539.89 2079.41 548.112C2077.4 553.632 2074.07 558.75 2069.87 562.833L2069.7 563.005H2069.47C2068.03 562.89 2066.59 562.832 2065.15 562.89C2054.34 563.177 2043.36 567.778 2033.47 576.173L2032.55 576.92L2032.67 576.862ZM2080.45 528.102C2072.74 528.447 2065.61 530.46 2059.23 534.082C2039.34 545.295 2034.79 567.835 2033.87 574.677C2043.65 566.627 2054.46 562.258 2065.21 561.97C2066.59 561.97 2067.97 561.97 2069.41 562.027C2073.43 558.06 2076.6 553.172 2078.55 547.825C2081.43 540.005 2081.2 532.875 2080.51 528.102H2080.45Z" fill="white"/>
<path d="M2026.23 581.347C2025.19 582.267 2024.04 583.245 2022.66 584.165C2021.05 585.372 2019.44 586.292 2018.01 587.04C2002.48 596.067 1984.83 592.502 1981.38 591.812C1975.63 590.662 1971.32 588.88 1969.07 587.96C1964.19 585.947 1960.28 583.705 1957.4 581.807C1961.66 577.897 1965.51 575.022 1968.33 573.067C1970.74 571.342 1974.19 568.985 1978.45 567.087C1981.38 565.765 1985.75 564.212 1991.61 563.522C1994.66 566.455 1998.63 569.79 2003.8 572.895C2012.43 578.07 2020.59 580.312 2026.29 581.29L2026.23 581.347Z" fill="white"/>
<path d="M1993.91 593.652C1989.83 593.652 1985.57 593.25 1981.32 592.387C1975.45 591.18 1971.03 589.397 1968.9 588.477C1964.82 586.81 1960.85 584.682 1957.17 582.267L1956.65 581.923L1957.11 581.52C1960.62 578.358 1964.3 575.368 1968.09 572.723C1970.85 570.768 1974.13 568.583 1978.27 566.685C1982.41 564.845 1986.84 563.637 1991.55 563.062H1991.78L1991.96 563.177C1995.64 566.742 1999.66 569.847 2004.03 572.492C2010.87 576.575 2018.35 579.392 2026.34 580.83L2027.26 581.002L2026.57 581.635C2025.42 582.67 2024.21 583.648 2023.01 584.51C2021.51 585.603 2019.9 586.58 2018.29 587.442C2011.33 591.467 2002.94 593.537 1993.91 593.537V593.652ZM1958.15 581.808C1961.65 584.05 1965.39 586.005 1969.24 587.615C1971.31 588.477 1975.68 590.317 1981.49 591.467C1995 594.17 2007.88 592.502 2017.77 586.752C2019.38 585.89 2020.94 584.912 2022.37 583.877C2023.35 583.187 2024.27 582.44 2025.13 581.692C2017.43 580.197 2010.13 577.38 2003.46 573.412C1999.09 570.825 1995.06 567.662 1991.38 564.155C1986.84 564.73 1982.58 565.88 1978.62 567.662C1974.53 569.502 1971.31 571.688 1968.55 573.585C1964.93 576.115 1961.42 578.875 1958.09 581.923L1958.15 581.808Z" fill="white"/>
<path d="M1979.31 528.792C1980.11 533.68 1982.07 541.845 1987.36 550.355C1988.68 552.54 1994.03 560.877 2004.09 567.892C2005.07 568.582 2008.4 570.825 2013.18 573.067C2018.18 575.425 2022.72 576.805 2026.17 577.61C2023.3 574.907 2019.73 570.94 2016.8 565.42C2010.59 553.805 2010.99 542.592 2011.51 537.59C2005.24 533.68 1995.98 529.367 1984.48 528.792C1982.64 528.677 1980.86 528.735 1979.19 528.792H1979.31Z" fill="white"/>
<path d="M2027.84 578.472L2026.11 578.07C2021.63 576.977 2017.2 575.425 2013 573.47C2008.4 571.285 2005.07 569.1 2003.86 568.237C1994.72 561.855 1989.37 554.437 1986.95 550.585C1982.87 543.972 1980.17 536.612 1978.85 528.85V528.332C1978.79 528.332 1979.31 528.332 1979.31 528.332C1981.09 528.217 1982.87 528.217 1984.65 528.332C1994.03 528.792 2003.17 531.782 2011.85 537.245L2012.08 537.417V537.705C2011.33 544.49 2011.74 554.84 2017.31 565.305C2019.73 569.79 2022.83 573.815 2026.57 577.322L2027.84 578.53V578.472ZM1979.82 529.252C1981.15 536.727 1983.79 543.8 1987.7 550.125C1990.06 553.92 1995.29 561.222 2004.32 567.49C2005.53 568.352 2008.8 570.48 2013.35 572.607C2016.97 574.275 2020.71 575.712 2024.56 576.69C2021.28 573.412 2018.52 569.675 2016.39 565.65C2010.82 555.127 2010.36 544.777 2011.05 537.82C2002.59 532.587 1993.62 529.712 1984.54 529.195C1982.99 529.137 1981.38 529.137 1979.82 529.195V529.252Z" fill="white"/>
<path d="M2034.1 656.96C2037.04 653.165 2041.18 646.897 2043.82 638.445C2048.19 624.472 2045.78 612.627 2044.4 607.567C2041.47 596.642 2035.89 589.052 2032.32 584.912C2032.15 591.007 2030.83 602.277 2023.52 613.95C2019.9 619.7 2015.76 623.955 2012.31 627.002C2014.79 631.66 2017.83 636.777 2021.69 642.125C2025.88 647.932 2030.14 652.877 2034.1 657.017V656.96Z" fill="white"/>
<path d="M2034.16 657.65L2033.82 657.247C2029.33 652.532 2025.14 647.53 2021.4 642.297C2017.89 637.467 2014.73 632.35 2011.97 627.117L2011.8 626.772L2012.08 626.542C2016.45 622.747 2020.19 618.377 2023.18 613.605C2028.59 605.037 2031.58 595.09 2031.92 584.797V583.59L2032.73 584.51C2038.48 591.18 2042.73 599.057 2044.92 607.395C2046.81 614.582 2048.31 625.795 2044.34 638.502C2042.27 645.172 2038.99 651.44 2034.57 657.19L2034.22 657.592L2034.16 657.65ZM2012.95 627.06C2015.65 632.12 2018.75 637.065 2022.09 641.78C2025.71 646.84 2029.74 651.67 2034.05 656.212C2038.25 650.692 2041.35 644.655 2043.36 638.272C2047.27 625.737 2045.84 614.697 2043.94 607.682C2041.87 599.92 2037.96 592.445 2032.73 586.12C2032.21 596.125 2029.16 605.785 2023.93 614.18C2020.94 618.952 2017.26 623.265 2012.95 627.06Z" fill="white"/>
<path d="M2028.76 584.395C2028.41 587.787 2025.13 614.007 2003 626.485C1994.72 631.142 1986.61 632.35 1981.15 632.522C1980.57 628.957 1979.77 621.137 1983.04 612.167C1985.75 604.807 1989.94 600.035 1992.47 597.62C1993.85 597.735 1995.35 597.735 1996.79 597.735C2010.99 597.332 2022.09 589.972 2028.76 584.337V584.395Z" fill="white"/>
<path d="M1980.8 633.04V632.638C1979.94 627.808 1979.59 620.275 1982.64 612.053C1984.65 606.533 1987.99 601.415 1992.19 597.333L1992.36 597.16H1992.59C1994.03 597.275 1995.46 597.333 1996.9 597.275C2007.71 596.988 2018.69 592.388 2028.58 583.993L2029.5 583.245L2029.39 584.395C2028.87 589.34 2025.08 614.64 2003.4 626.888C1996.79 630.625 1989.37 632.695 1981.32 632.983H1980.92L1980.8 633.04ZM1992.65 598.195C1988.62 602.163 1985.46 607.05 1983.5 612.398C1980.63 620.218 1980.86 627.348 1981.55 632.12C1989.25 631.775 1996.38 629.763 2002.77 626.14C2022.66 614.928 2027.2 592.388 2028.12 585.545C2018.35 593.595 2007.54 597.965 1996.79 598.253C1995.41 598.253 1994.03 598.253 1992.59 598.195H1992.65Z" fill="white"/>
<path d="M2035.77 578.817C2036.81 577.897 2037.96 576.92 2039.34 576C2040.95 574.792 2042.56 573.872 2044 573.125C2059.52 564.097 2077.17 567.662 2080.62 568.352C2086.37 569.502 2090.69 571.285 2092.93 572.205C2097.82 574.217 2101.73 576.46 2104.6 578.357C2100.35 582.267 2096.49 585.142 2093.68 587.097C2091.26 588.822 2087.81 591.18 2083.56 593.077C2080.62 594.4 2076.25 595.952 2070.39 596.642C2067.34 593.71 2063.37 590.375 2058.2 587.27C2049.57 582.095 2041.41 579.852 2035.72 578.875L2035.77 578.817Z" fill="white"/>
<path d="M2070.22 597.102L2070.04 596.93C2066.36 593.365 2062.34 590.26 2057.97 587.615C2051.13 583.532 2043.65 580.715 2035.66 579.277L2034.74 579.105L2035.43 578.472C2036.58 577.437 2037.79 576.46 2038.99 575.597C2040.49 574.505 2042.1 573.527 2043.71 572.665C2053.83 566.8 2066.94 565.075 2080.68 567.835C2086.55 569.042 2090.97 570.825 2093.1 571.745C2097.18 573.412 2101.15 575.54 2104.83 577.955L2105.35 578.3L2104.89 578.702C2101.38 581.865 2097.7 584.855 2093.91 587.5C2091.15 589.455 2087.87 591.64 2083.73 593.537C2079.59 595.377 2075.16 596.585 2070.45 597.16H2070.22V597.102ZM2036.81 578.53C2044.51 580.025 2051.82 582.842 2058.49 586.81C2062.86 589.397 2066.88 592.56 2070.56 596.067C2075.1 595.492 2079.36 594.342 2083.33 592.56C2087.41 590.72 2090.63 588.535 2093.39 586.637C2097.01 584.107 2100.52 581.347 2103.85 578.3C2100.35 576.057 2096.61 574.102 2092.76 572.492C2090.69 571.63 2086.32 569.79 2080.51 568.64C2067 565.937 2054.12 567.605 2044.23 573.355C2042.62 574.217 2041.06 575.195 2039.63 576.23C2038.65 576.92 2037.73 577.667 2036.87 578.415L2036.81 578.53Z" fill="white"/>
<path d="M2082.29 631.775C2080.74 620.16 2076.25 612.283 2073.55 608.2C2061.93 590.95 2043.3 585.545 2038.59 584.223C2037.38 583.878 2036.4 583.648 2035.71 583.475C2038.59 586.12 2042.1 590.088 2044.97 595.493C2051.12 606.993 2050.72 618.033 2050.2 623.035C2056.41 626.945 2065.61 631.2 2076.94 631.775C2078.78 631.89 2080.51 631.833 2082.17 631.775H2082.29Z" fill="white"/>
<path d="M2079.7 632.35C2078.84 632.35 2077.92 632.35 2077.06 632.292C2067.74 631.832 2058.66 628.842 2050.09 623.495L2049.86 623.322V623.035C2050.55 616.307 2050.2 606.072 2044.68 595.78C2042.33 591.352 2039.22 587.327 2035.48 583.877L2034.22 582.67L2035.94 583.072C2036.92 583.302 2037.9 583.532 2038.82 583.82C2058.25 589.397 2068.66 600.035 2074.01 607.97C2078.61 614.87 2081.66 623.092 2082.81 631.775V632.292C2082.86 632.292 2082.35 632.292 2082.35 632.292C2081.48 632.292 2080.56 632.35 2079.7 632.35ZM2050.78 622.805C2059.17 627.98 2068.03 630.855 2077.06 631.315C2078.61 631.372 2080.16 631.372 2081.77 631.315C2080.56 622.977 2077.63 615.042 2073.15 608.43C2067.91 600.61 2057.62 590.145 2038.47 584.625C2038.07 584.51 2037.73 584.395 2037.32 584.337C2040.54 587.615 2043.3 591.295 2045.43 595.262C2051.01 605.67 2051.41 615.905 2050.78 622.805Z" fill="white"/>
</g>
<defs>
<clipPath id="clip0_55_129">
<rect width="230" height="230" fill="white" transform="translate(1916 461)"/>
</clipPath>
</defs>
</svg>
